<?xml version="1.0" encoding="utf-8"?>
<!-- Generator: Adobe Illustrator 25.4.1, SVG Export Plug-In . SVG Version: 6.00 Build 0)  -->
<svg version="1.1" id="Layer_1" xmlns="http://www.w3.org/2000/svg" xmlns:xlink="http://www.w3.org/1999/xlink" x="0px" y="0px"
	 viewBox="0 0 586 586" style="enable-background:new 0 0 586 586;" xml:space="preserve">
<style type="text/css">
	.st0{fill:#FFFFFF;}
	.st1{fill:#AF9644;}
</style>
<g>
	<path d="M293,0C131.3,0,0,131.3,0,293c0,161.7,131.3,293,293,293c161.7,0,293-131.3,293-293C586,131.3,454.7,0,293,0z M293,577.2
		C136.3,577.2,8.8,449.7,8.8,293S136.3,8.8,293,8.8c156.7,0,284.2,127.5,284.2,284.2S449.7,577.2,293,577.2z"/>
	
		<ellipse transform="matrix(0.7071 -0.7071 0.7071 0.7071 -121.3644 293.0004)" class="st0" cx="293" cy="293" rx="284.2" ry="284.2"/>
	<path class="st1" d="M497.2,344.7c0-0.2,0-0.5-0.1-0.7l-62.1-188.1c0,0,0-0.1,0-0.1c0-0.1-0.1-0.2-0.1-0.2c0-0.1-0.1-0.2-0.2-0.4
		c0,0,0,0,0,0c0,0,0,0,0,0c-0.2-0.3-0.4-0.6-0.7-0.8c0,0-0.1,0-0.1-0.1c-0.3-0.2-0.6-0.4-1-0.5c0,0,0,0,0,0c0,0,0,0-0.1,0
		c-0.2,0-0.4,0-0.5,0v-0.1H300.9V132c11-3.4,19-13.6,19-25.7c0-14.9-12.1-26.9-26.9-26.9c-14.9,0-26.9,12.1-26.9,26.9
		c0,12.1,8,22.3,19,25.7v21.6H153.7v0.1c-0.2,0-0.4,0-0.5,0c0,0,0,0-0.1,0c0,0,0,0,0,0c-0.4,0.1-0.7,0.3-1,0.5c0,0-0.1,0-0.1,0.1
		c-0.3,0.2-0.5,0.5-0.7,0.8c0,0,0,0,0,0c0,0,0,0,0,0c-0.1,0.1-0.1,0.2-0.2,0.4c0,0.1-0.1,0.2-0.1,0.2c0,0,0,0.1,0,0.1L88.9,344
		c-0.1,0.2-0.1,0.5-0.1,0.7h0c0,0,0,0,0,0.1c0,0.5,0.1,1,0.3,1.4c3.8,15.9,14.8,27.4,27.9,27.4h73.4c13.1,0,24.1-11.5,27.9-27.3
		c0.2-0.4,0.3-0.9,0.3-1.4c0,0,0,0,0-0.1h0c0-0.2,0-0.5-0.1-0.7l-58.3-177.7l124.8,30.4v150.5l-31.6,97.6h-38.7
		c-11.6,0-21.1,9.4-21.1,21.1v1.5h198.6v-1.5c0-11.6-9.4-21.1-21.1-21.1h-38.7l-31.6-97.6V196.7l124.8-30.4L367.5,344
		c-0.1,0.2-0.1,0.5-0.1,0.7h0c0,0,0,0,0,0.1c0,0.5,0.1,1,0.3,1.4c3.8,15.8,14.8,27.3,27.9,27.3H469c13.1,0,24.1-11.5,27.9-27.4
		C497.1,345.8,497.2,345.3,497.2,344.7C497.2,344.8,497.2,344.8,497.2,344.7L497.2,344.7z M150.7,344.7H95.1l55.5-168.4V344.7z
		 M212.3,344.7h-55.2V176.4L212.3,344.7z M293,123.1c-9.3,0-16.8-7.6-16.8-16.8c0-9.3,7.6-16.8,16.8-16.8c9.3,0,16.8,7.6,16.8,16.8
		C309.8,115.6,302.3,123.1,293,123.1z M373.7,344.7l55.2-168.3v168.3H373.7z M435.3,344.7V176.3l55.6,168.4H435.3z"/>
</g>
</svg>
