<?xml version="1.0" encoding="utf-8"?>
<!-- Generator: Adobe Illustrator 26.0.2, SVG Export Plug-In . SVG Version: 6.00 Build 0)  -->
<svg version="1.1" id="Layer_1" xmlns="http://www.w3.org/2000/svg" xmlns:xlink="http://www.w3.org/1999/xlink" x="0px" y="0px"
	 viewBox="0 0 100 100" style="enable-background:new 0 0 100 100;" xml:space="preserve">
<style type="text/css">
	.st0{fill:#AF9644;}
</style>
<g>
	<g>
		<g>
			<path class="st0" d="M61.53,70.64h-5.48c-0.82,0-1.47,0.65-1.47,1.46c0,0.81,0.65,1.46,1.47,1.46h5.48
				c0.81,0,1.46-0.66,1.46-1.46C63,71.3,62.34,70.64,61.53,70.64z"/>
		</g>
	</g>
	<g>
		<g>
			<path class="st0" d="M93.79,54.96l-7.97-3.07l-4.07-4.07c-0.26-0.27-0.6-0.4-0.94-0.43v-3.23c1.92-2.05,3.28-4.64,3.83-7.55
				c0.34,0.01,0.69-0.01,1.02-0.08c1.95-0.4,3.36-2.21,3.36-4.3v-1.07c0-1.22-0.49-2.32-1.29-3.12c1.29-7.04,0.22-12.77-3.1-16.61
				c-3.21-3.71-8.39-5.49-14.97-5.13c-6.09,0.33-10.01,3.13-11.25,4.15c-0.68,0.09-1.84,0.32-3.02,1.03
				c-1.62,0.98-3.57,3.03-3.57,7.25c0,3.68,0.59,6.76,1.02,8.51c-1.43,0.69-2.39,2.21-2.39,3.93v1.05c0,2.09,1.42,3.9,3.36,4.3
				c0.34,0.07,0.69,0.1,1.03,0.08c0.55,2.91,1.91,5.5,3.83,7.55v3.23c-0.34,0.02-0.68,0.16-0.94,0.43l-4.07,4.07l-7.98,3.07
				c-0.69,0.27-1.35,0.61-1.96,1.03c-0.67,0.45-0.84,1.36-0.39,2.03c0.28,0.42,0.74,0.64,1.21,0.64c0.29,0,0.58-0.08,0.82-0.25
				c0.43-0.29,0.88-0.53,1.36-0.72l7.4-2.86l5.66,8.49c0.7,1.05,1.83,1.73,3.09,1.85c0.14,0.01,0.28,0.02,0.42,0.02
				c0.73,0,1.43-0.2,2.06-0.55l-1.22,27.55c-0.04,0.81,0.59,1.49,1.4,1.53c0.02,0,0.04,0,0.07,0c0.78,0,1.43-0.62,1.46-1.4
				l1.13-25.58h3.04l1.12,25.58c0.04,0.78,0.69,1.4,1.47,1.4c0.02,0,0.04,0,0.06,0c0.81-0.04,1.43-0.72,1.4-1.53l-1.22-27.55
				c0.63,0.35,1.33,0.55,2.06,0.55c0.14,0,0.28-0.01,0.42-0.02c1.26-0.13,2.39-0.8,3.09-1.85l5.66-8.49l7.41,2.86
				c1.03,0.4,1.93,1.04,2.63,1.84l-5.06,5.06c-1.83,1.83-2.84,4.26-2.84,6.85v20.83c0,0.81,0.66,1.46,1.46,1.46
				c0.81,0,1.47-0.66,1.47-1.46V71.45c0-1.81,0.71-3.51,1.98-4.78l4.45-4.44c0.18,0.65,0.26,1.34,0.23,2.05l-1.13,27.95
				c-0.03,0.81,0.6,1.49,1.4,1.52c0.02,0,0.04,0,0.06,0c0.78,0,1.43-0.62,1.46-1.4l1.13-27.95C100.16,60.24,97.67,56.45,93.79,54.96
				z M57.73,36c-0.26-1.41-1.56-2.43-2.97-2.32c-0.11,0.01-0.22,0-0.34-0.02c-0.58-0.12-1.03-0.74-1.03-1.43v-1.05
				c0-0.68,0.46-1.29,1.04-1.4c0.49-0.09,0.96,0.1,1.25,0.48c0.27,0.35,0.63,0.6,1.04,0.72c0.6,0.18,1.26,0.08,1.77-0.28
				c0.92-0.65,1.73-1.44,2.41-2.35c0.48-0.65,0.35-1.57-0.3-2.05c-0.65-0.48-1.56-0.35-2.05,0.3c-0.34,0.45-0.72,0.87-1.14,1.23
				c-0.47-0.39-1.01-0.68-1.59-0.85c-0.38-1.44-1.05-4.53-1.05-8.25c0-2.25,0.69-3.82,2.05-4.69c1.07-0.67,2.19-0.7,2.19-0.7
				c0.38,0,0.74-0.15,1.01-0.41c0.04-0.03,3.64-3.37,9.8-3.71c5.65-0.31,10.01,1.12,12.6,4.12c2.62,3.03,3.5,7.67,2.55,13.49
				c-0.39-0.01-0.82,0.02-1.25,0.09l-1.37-3.31c-0.28-0.67-1.02-1.03-1.72-0.85c-0.14,0.04-13.67,3.46-19.34-3.6
				c-0.51-0.63-1.43-0.73-2.06-0.22c-0.63,0.5-0.74,1.43-0.22,2.05c5.79,7.21,17.29,5.65,21.11,4.88l1.06,2.55
				c0.46,1.1,1.63,1.7,2.79,1.43c0.47-0.11,0.93-0.12,1.09-0.08c0.6,0.12,1.04,0.71,1.04,1.38v1.07c0,0.69-0.44,1.31-1.02,1.43
				c-0.12,0.02-0.23,0.03-0.34,0.02c-1.41-0.1-2.71,0.92-2.97,2.32c-1.06,5.81-6.11,10.02-12.02,10.02
				C63.85,46.02,58.8,41.81,57.73,36z M64.23,61.9c-0.37,0.37-0.8,0.39-1.03,0.36c-0.22-0.02-0.64-0.12-0.94-0.56l-5.7-8.55
				l2.29-2.29l8.76,7.66L64.23,61.9z M68.36,63.83l0.09-2.01l1.3-1.31l1.3,1.31l0.09,2.01H68.36z M69.76,56.5l-8.13-7.11v-2.8
				c2.37,1.5,5.16,2.36,8.13,2.36c2.97,0,5.76-0.86,8.13-2.36v2.8L69.76,56.5z M77.24,61.7c-0.29,0.44-0.71,0.54-0.93,0.56
				c-0.23,0.03-0.66,0.01-1.03-0.36l-3.38-3.38l8.75-7.66l2.3,2.29L77.24,61.7z"/>
		</g>
	</g>
	<g>
		<g>
			<path class="st0" d="M46.45,62.64l-7.15-3.12l-3.91-3.91c-0.26-0.27-0.6-0.41-0.94-0.43v-2.31c3.34-2.19,5.78-5.68,6.57-9.85
				c0.38,0.02,0.77-0.02,1.15-0.11c1.87-0.44,3.23-2.24,3.23-4.27v-1.06c0-1.49-0.74-2.82-1.88-3.61c0.33-1.33,0.5-2.69,0.5-4.06
				c0-6.07-3.28-11.41-8.23-14.48c-0.05-5.07-4.38-9.17-9.68-9.17c-5.31,0-9.64,4.11-9.69,9.17c-4.94,3.07-8.22,8.41-8.22,14.48
				c0,1.36,0.17,2.72,0.5,4.05c-1.14,0.78-1.88,2.12-1.88,3.63v1.05c0,2.03,1.36,3.83,3.24,4.27c0.39,0.09,0.77,0.13,1.16,0.11
				c0.79,4.17,3.23,7.66,6.57,9.85v2.31c-0.34,0.02-0.68,0.16-0.94,0.43l-3.91,3.91l-7.15,3.12c-3.64,1.59-5.97,5.32-5.8,9.29
				l0.86,20.41c0.04,0.78,0.68,1.4,1.47,1.4c0.02,0,0.04,0,0.06,0c0.81-0.04,1.44-0.72,1.41-1.53L2.93,71.8
				c-0.05-1.32,0.28-2.59,0.93-3.69l3.84,4.61c1.21,1.46,1.88,3.31,1.88,5.2v14.35c0,0.81,0.65,1.46,1.46,1.46
				c0.81,0,1.47-0.66,1.47-1.46V77.93c0-2.58-0.91-5.1-2.57-7.08l-4.08-4.9c0.34-0.24,0.71-0.45,1.11-0.62l6.24-2.72l4.41,7.15
				c0.43,0.7,1.15,1.18,1.98,1.31c0.14,0.02,0.3,0.03,0.44,0.03c0.67,0,1.32-0.24,1.84-0.68l2.79-2.38v24.24
				c0,0.81,0.65,1.46,1.46,1.46c0.81,0,1.46-0.66,1.46-1.46V68.04l2.79,2.38c0.52,0.44,1.17,0.68,1.84,0.68
				c0.15,0,0.29-0.01,0.44-0.03c0.82-0.13,1.54-0.61,1.97-1.31l4.4-7.15l6.24,2.72c0.39,0.17,0.76,0.38,1.11,0.62l-4.09,4.9
				c-1.65,1.99-2.56,4.5-2.56,7.08v14.35c0,0.81,0.65,1.46,1.46,1.46c0.81,0,1.47-0.66,1.47-1.46V77.93c0-1.89,0.68-3.74,1.89-5.2
				l3.84-4.61c0.64,1.1,0.98,2.38,0.93,3.69l-0.86,20.41c-0.04,0.81,0.59,1.49,1.4,1.53c0.02,0,0.05,0,0.06,0
				c0.78,0,1.44-0.62,1.47-1.4l0.86-20.41C52.42,67.96,50.09,64.22,46.45,62.64z M26.13,9.19c3.11,0,5.74,1.99,6.52,4.69
				c-2.03-0.76-4.23-1.19-6.52-1.19c-2.3,0-4.51,0.42-6.53,1.19C20.39,11.18,23.02,9.19,26.13,9.19z M14.11,42.42
				c-0.26-1.4-1.56-2.43-2.96-2.32c-0.13,0.01-0.26-0.01-0.39-0.03c-0.56-0.14-0.97-0.75-0.97-1.42v-1.05
				c0-0.68,0.45-1.29,1.03-1.39c0.49-0.09,0.96,0.09,1.26,0.48c0.27,0.35,0.63,0.6,1.04,0.72c0.6,0.18,1.26,0.08,1.77-0.28
				c0.9-0.64,1.7-1.41,2.37-2.31c0.48-0.65,0.35-1.56-0.3-2.05c-0.64-0.49-1.57-0.35-2.05,0.29c-0.33,0.45-0.71,0.84-1.12,1.2
				c-0.63-0.54-1.4-0.87-2.21-0.97c-0.28-1.11-0.42-2.23-0.42-3.37c0-7.88,6.72-14.3,14.98-14.3c8.26,0,14.97,6.41,14.97,14.3
				c0,1.14-0.14,2.26-0.42,3.36c-0.39,0.03-0.77,0.09-1.14,0.19l-1.1-0.91c-0.56-0.45-1.25-0.68-1.95-0.64
				c-2.16,0.12-13.18,0.42-18.84-6.36c-0.52-0.62-1.44-0.7-2.06-0.18c-0.62,0.52-0.7,1.44-0.18,2.06c2.79,3.34,6.88,5.6,12.16,6.71
				c4.05,0.86,7.64,0.77,9.05,0.69l1.71,1.41c0.48,0.39,1.14,0.45,1.67,0.14c0.25-0.14,1.08-0.27,1.45-0.19
				c0.59,0.12,1.04,0.71,1.04,1.38v1.06c0,0.68-0.42,1.29-0.98,1.42c-0.13,0.03-0.26,0.04-0.38,0.03c-1.4-0.1-2.71,0.92-2.97,2.32
				c-1.07,5.8-6.13,10.01-12.02,10.01C20.23,52.43,15.18,48.22,14.11,42.42z M20.05,68.12l-4.41-7.15l2.26-2.26l6.07,6.07
				L20.05,68.12z M26.13,62.79l-5.39-5.39v-3.02c1.68,0.64,3.5,0.99,5.39,0.99c1.89,0,3.7-0.35,5.38-0.99v3.02L26.13,62.79z
				 M32.21,68.12l-3.92-3.34l6.06-6.07l2.26,2.26L32.21,68.12z"/>
		</g>
	</g>
	<g>
		<g>
			<path class="st0" d="M20.65,77.1h-4.11c-0.81,0-1.46,0.65-1.46,1.46c0,0.81,0.65,1.47,1.46,1.47h4.11c0.81,0,1.46-0.65,1.46-1.47
				C22.11,77.76,21.46,77.1,20.65,77.1z"/>
		</g>
	</g>
</g>
</svg>
