<?xml version="1.0" encoding="utf-8"?>
<!-- Generator: Adobe Illustrator 26.0.2, SVG Export Plug-In . SVG Version: 6.00 Build 0)  -->
<svg version="1.1" id="Layer_1" xmlns="http://www.w3.org/2000/svg" xmlns:xlink="http://www.w3.org/1999/xlink" x="0px" y="0px"
	 viewBox="0 0 100 100" style="enable-background:new 0 0 100 100;" xml:space="preserve">
<style type="text/css">
	.st0{fill:#AF9644;}
</style>
<g>
	<g>
		<g>
			<path class="st0" d="M86.77,83.33c-4.51,0-5-2-5-3c6.34-2.67,10.17-9,10.01-15.83c0-0.34,0-1,0-1.17c0-8.33-6.67-15-15.01-15
				H56.73c-1,0-1.67,0.67-1.67,1.67c0,3.83,1.5,7.5,4.01,10.17c-0.34,1.66-0.67,3.16-0.67,4.83c0,6.67,4.01,12.67,10.01,15.33
				c0,1-0.5,3-5,3c-4.68,0-8.35,3.67-8.35,8.33V100h3.34v-8.34c0-2.83,2.17-5,5.01-5c5.17,0,8.34-2.5,8.34-6.67v-0.84
				c0-0.66-0.5-1.33-1.16-1.5c-5.34-2-8.85-7-8.85-12.67c0-0.84,0-1.67,0.17-2.33c2.33,1.5,5.17,2.33,8.17,2.33h18.35
				c0,5.67-3.51,10.67-8.84,12.5c-0.67,0.17-1.17,0.84-1.17,1.5v1c0,4.17,3.17,6.67,8.34,6.67c2.84,0,5.01,2.17,5.01,5V100h3.34
				v-8.34C95.11,87,91.44,83.33,86.77,83.33z M70.08,61.67c-5.84,0-10.68-4.33-11.51-10h18.19c5.84,0,10.67,4.34,11.51,10H70.08z"/>
		</g>
	</g>
	<g>
		<g>
			<path class="st0" d="M99.95,45V16.67C100.12,13,97.11,10,93.44,10H60.07V6.67C60.07,3,57.07,0,53.4,0H6.68C3,0,0,3,0,6.67v36.66
				c0,7,2.51,12,7.51,15l1.67-2.83C5.34,53,3.34,49.17,3.34,43.33V6.67c0-1.84,1.5-3.33,3.34-3.33H53.4c1.84,0,3.34,1.5,3.34,3.33
				v31.66c0,1.83-1.5,3.33-3.34,3.33h-29.7c-5.17,0-9.68,3.83-10.34,9c0,0.33,0,0.66,0,1h3.34c0-0.17,0-0.5,0-0.67
				c0.5-3.5,3.5-6,7.01-6h29.7c3.67,0,6.67-3,6.67-6.67h20.02c4.68,0,8.35,3.67,8.35,8.33h3.34c0-6.5-5.17-11.67-11.68-11.67H60.07
				V13.33h33.37c1.84,0,3.34,1.5,3.34,3.33V45c0.17,3.5-0.83,6.83-3,9.67l2.5,2.17C98.95,53.5,100.28,49.33,99.95,45z"/>
		</g>
	</g>
	<g>
		<g>
			<path class="st0" d="M41.71,85c-2.67,0-4.84-2-5.01-4.66c8.51-3.67,12.35-13.5,8.68-22c-3.67-8.5-13.52-12.33-22.02-8.66
				c-8.51,3.66-12.35,13.5-8.68,22c1.68,3.83,4.84,7,8.68,8.67C23.19,83,21.02,85,18.35,85c-4.67,0-8.34,3.67-8.34,8.34V100h3.34
				v-6.67c0-2.83,2.17-5,5-5c4.68,0,8.34-3.66,8.34-8.33v-0.84c0-0.66-0.5-1.33-1.17-1.5c-4.67-1.67-8.17-5.84-8.84-10.84h5
				c0.34,0,0.67-0.16,1.01-0.33l4-2.67l4,2.67c0.34,0.16,0.67,0.33,1.01,0.33h11.51c-0.66,5-4,9.17-8.84,10.84
				c-0.67,0.16-1.16,0.83-1.16,1.5V80c0,4.67,3.67,8.33,8.34,8.33c2.84,0,5,2.17,5,5V100h3.34v-6.67C50.06,88.67,46.39,85,41.71,85z
				 M32.2,63.33l-4.5-3c-0.5-0.33-1.33-0.33-1.84,0l-4.67,3h-4.34c0.83-7.33,7.51-12.5,14.85-11.5c6,0.83,10.84,5.5,11.51,11.5H32.2
				z"/>
		</g>
	</g>
	<g>
		<g>
			<rect x="8.34" y="8.34" class="st0" width="35.04" height="3.33"/>
		</g>
	</g>
	<g>
		<g>
			<rect x="8.34" y="15" class="st0" width="10.01" height="3.33"/>
		</g>
	</g>
	<g>
		<g>
			<rect x="21.69" y="15" class="st0" width="25.03" height="3.33"/>
		</g>
	</g>
	<g>
		<g>
			<rect x="8.34" y="21.67" class="st0" width="3.33" height="3.33"/>
		</g>
	</g>
	<g>
		<g>
			<rect x="15.02" y="21.67" class="st0" width="13.35" height="3.33"/>
		</g>
	</g>
	<g>
		<g>
			<rect x="31.71" y="21.67" class="st0" width="15.02" height="3.33"/>
		</g>
	</g>
	<g>
		<g>
			<rect x="70.08" y="20" class="st0" width="23.36" height="3.33"/>
		</g>
	</g>
	<g>
		<g>
			<rect x="63.41" y="26.67" class="st0" width="11.68" height="3.33"/>
		</g>
	</g>
	<g>
		<g>
			<rect x="78.42" y="26.67" class="st0" width="15.02" height="3.33"/>
		</g>
	</g>
	<g>
		<g>
			<rect x="63.41" y="20" class="st0" width="3.33" height="3.33"/>
		</g>
	</g>
</g>
</svg>
