<svg id="Layer_1" data-name="Layer 1" xmlns="http://www.w3.org/2000/svg" viewBox="0 0 100 74.13"><defs><style>.cls-1{fill:#af9644;}</style></defs><path class="cls-1" d="M99.82,33.13,80.43,13.74a1.61,1.61,0,0,0-2.26,0l-9.7,9.7A1.57,1.57,0,0,0,68,24.56a1.61,1.61,0,0,0,.47,1.14l1,1-2.22,2.23a5,5,0,0,1-5.57,1A14,14,0,0,0,56,28.64a13.75,13.75,0,0,0-6.6,1.68A10.71,10.71,0,0,0,46.77,30a11,11,0,0,0-3.68.64,5,5,0,0,1-5.27-1.1l-4-4,.48-.48a1.59,1.59,0,0,0,0-2.26l-9.7-9.69a1.58,1.58,0,0,0-2.25,0L.76,34.71A1.59,1.59,0,0,0,.76,37l9.69,9.7a1.61,1.61,0,0,0,1.13.47,1.59,1.59,0,0,0,1.13-.47l.58-.58,2.82,2.82a4.82,4.82,0,0,1,1.36,2.56,25.07,25.07,0,0,0,7,13.19l.53.53a5.74,5.74,0,0,0,4.16,9.7h.29a5.73,5.73,0,0,0,1.68,4.35,5.67,5.67,0,0,0,4.06,1.69h.13a5.75,5.75,0,0,0,9.81,4.19l.26-.29a5.36,5.36,0,0,0,5.56-1.27,5.41,5.41,0,0,0,1.22-1.86l.16.16a5.37,5.37,0,0,0,7.59,0,5.16,5.16,0,0,0,1.24-1.93,5.36,5.36,0,0,0,7-.55,5.33,5.33,0,0,0,1.57-3.79,4.91,4.91,0,0,0-.16-1.27,5.4,5.4,0,0,0,4.3-5.26,5.35,5.35,0,0,0-1-3.11l1.28-1.28a25.08,25.08,0,0,0,7-13.35A4.29,4.29,0,0,1,82.26,49L87,44.25l.84.84a1.58,1.58,0,0,0,1.12.47,1.6,1.6,0,0,0,1.13-.47l9.7-9.7a1.59,1.59,0,0,0,.47-1.13A1.61,1.61,0,0,0,99.82,33.13ZM11.58,43.28,4.14,35.84,23.47,16.51,30.91,24ZM30.92,71a2.56,2.56,0,1,1,0-3.61A2.55,2.55,0,0,1,30.92,71Zm6,6a2.56,2.56,0,0,1-3.62,0,2.57,2.57,0,0,1,0-3.61,2.58,2.58,0,0,1,3.62,0A2.57,2.57,0,0,1,37,77Zm5.87,5.87a2.53,2.53,0,0,1-1.81.75,2.49,2.49,0,0,1-1.8-.75A2.55,2.55,0,0,1,41,78.49a2.59,2.59,0,0,1,1.81.74A2.57,2.57,0,0,1,42.82,82.84ZM69.94,70.59a2.19,2.19,0,0,1-3.07,0L51.38,55.09a1.61,1.61,0,0,0-2.26,0,1.59,1.59,0,0,0,0,2.26L65.81,74a2.2,2.2,0,0,1,0,3.08,2.2,2.2,0,0,1-3.08,0L59.91,74.3l0,0h0L46.91,61.3a1.61,1.61,0,0,0-2.26,0,1.58,1.58,0,0,0,0,2.25l13,13a2.17,2.17,0,0,1-3.09,3L40.46,65.51a1.6,1.6,0,1,0-2.26,2.26L48.64,78.21h0a2.16,2.16,0,0,1,0,3.07,2.15,2.15,0,0,1-1.53.64,2,2,0,0,1-.42,0A5.74,5.74,0,0,0,41,75.29h-.13a5.74,5.74,0,0,0-5.74-5.88h-.29a5.73,5.73,0,0,0-7-5.88L26.67,62.4a21.86,21.86,0,0,1-6.06-11.52,8.07,8.07,0,0,0-2.25-4.23l-2.81-2.82,16-16,4,4a8.14,8.14,0,0,0,5.76,2.35,8.33,8.33,0,0,0,2.86-.5,6.86,6.86,0,0,1,1.4-.36l-9.89,9.89a6.41,6.41,0,0,0,9.06,9.06l5-5,1.35,1.35h0l.06,0,.05,0h0l0,0L69.94,67.51a2.17,2.17,0,0,1,0,3.08ZM80,46.76a7.47,7.47,0,0,0-2.1,4A22,22,0,0,1,71.81,62.4l-1.23,1.23L60.48,53.52l.66,0a8.26,8.26,0,0,0,3.11-.6A1.6,1.6,0,0,0,63,50c-4.11,1.68-9-3-9.59-3.49,0,0,0,0,0,0l-.05-.06h0l0-.05h0L52,45,53.5,43.5a1.6,1.6,0,0,0-2.26-2.26l-2.65,2.65h0L42.49,50A3.22,3.22,0,0,1,38,50a3.21,3.21,0,0,1,0-4.54L48.47,34.93A10.15,10.15,0,0,1,50.4,33.4,10.51,10.51,0,0,1,56,31.83a10.72,10.72,0,0,1,4.37.94,8.18,8.18,0,0,0,9.15-1.63l2.23-2.22L84.77,42Zm9-5.06L71.86,24.57l7.44-7.44L96.43,34.26Z" transform="translate(-0.29 -12.66)"/></svg>